<svg xmlns="http://www.w3.org/2000/svg" xmlns:xlink="http://www.w3.org/1999/xlink" viewBox="0 0 1467.9 477.59"><defs><style>.cls-1,.cls-10,.cls-4{fill:none;}.cls-2{clip-path:url(#clip-path);}.cls-3{fill:url(#radial-gradient);}.cls-10,.cls-4{stroke:#ffffff;}.cls-4{stroke-linejoin:round;stroke-width:9.44px;}.cls-5{fill:#fff;}.cls-6{fill:#242323;}.cls-7{fill:url(#linear-gradient);}.cls-8{fill:url(#linear-gradient-2);}.cls-9{fill:#ffffff;}.cls-10{stroke-miterlimit:10;stroke-width:10px;} </style><style class="darkreader darkreader--sync" media="screen"/><clipPath id="clip-path"><path class="cls-1" d="M391.84,276a78.65,78.65,0,0,0,25.63,145.45h0l12.62,51.43,13.08-51.07A78.67,78.67,0,1,0,391.84,276"/></clipPath><radialGradient id="radial-gradient" cx="-377.42" cy="746.38" r="1" gradientTransform="matrix(92.07, 0, 0, -92.07, 35181.88, 69090.1)" gradientUnits="userSpaceOnUse"><stop offset="0" stop-color="#84845f" data-darkreader-inline-stopcolor="" style="--darkreader-inline-stopcolor: #6a6a4c;"/><stop offset="0.08" stop-color="#8c8e62" data-darkreader-inline-stopcolor="" style="--darkreader-inline-stopcolor: #70724e;"/><stop offset="0.21" stop-color="#949965" data-darkreader-inline-stopcolor="" style="--darkreader-inline-stopcolor: #767a51;"/><stop offset="0.35" stop-color="#979d66" data-darkreader-inline-stopcolor="" style="--darkreader-inline-stopcolor: #595c3b;"/><stop offset="0.49" stop-color="#8aa67d" data-darkreader-inline-stopcolor="" style="--darkreader-inline-stopcolor: #5b6c4a;"/><stop offset="0.77" stop-color="#6abeb6" data-darkreader-inline-stopcolor="" style="--darkreader-inline-stopcolor: #367d78;"/><stop offset="0.8" stop-color="#66c1bd" data-darkreader-inline-stopcolor="" style="--darkreader-inline-stopcolor: #34807e;"/><stop offset="0.83" stop-color="#5cbcbb" data-darkreader-inline-stopcolor="" style="--darkreader-inline-stopcolor: #378685;"/><stop offset="0.89" stop-color="#40adb7" data-darkreader-inline-stopcolor="" style="--darkreader-inline-stopcolor: #338a92;"/><stop offset="0.97" stop-color="#1496b0" data-darkreader-inline-stopcolor="" style="--darkreader-inline-stopcolor: #10788d;"/><stop offset="1" stop-color="#008cad" data-darkreader-inline-stopcolor="" style="--darkreader-inline-stopcolor: #00708a;"/></radialGradient><linearGradient id="linear-gradient" x1="-377.42" y1="746.38" x2="-376.42" y2="746.38" gradientTransform="matrix(370.67, 0, 0, -370.67, 140144.81, 276835.13)" gradientUnits="userSpaceOnUse"><stop offset="0" stop-color="#84845f" data-darkreader-inline-stopcolor="" style="--darkreader-inline-stopcolor: #6a6a4c;"/><stop offset="0.03" stop-color="#8c8e62" data-darkreader-inline-stopcolor="" style="--darkreader-inline-stopcolor: #70724e;"/><stop offset="0.08" stop-color="#949965" data-darkreader-inline-stopcolor="" style="--darkreader-inline-stopcolor: #767a51;"/><stop offset="0.14" stop-color="#979d66" data-darkreader-inline-stopcolor="" style="--darkreader-inline-stopcolor: #595c3b;"/><stop offset="0.22" stop-color="#89a77e" data-darkreader-inline-stopcolor="" style="--darkreader-inline-stopcolor: #596c49;"/><stop offset="0.33" stop-color="#7ab29a" data-darkreader-inline-stopcolor="" style="--darkreader-inline-stopcolor: #417061;"/><stop offset="0.45" stop-color="#6fbbad" data-darkreader-inline-stopcolor="" style="--darkreader-inline-stopcolor: #397970;"/><stop offset="0.56" stop-color="#68bfb9" data-darkreader-inline-stopcolor="" style="--darkreader-inline-stopcolor: #367e7b;"/><stop offset="0.68" stop-color="#66c1bd" data-darkreader-inline-stopcolor="" style="--darkreader-inline-stopcolor: #34807e;"/><stop offset="0.73" stop-color="#5cbcbb" data-darkreader-inline-stopcolor="" style="--darkreader-inline-stopcolor: #378685;"/><stop offset="0.83" stop-color="#40adb7" data-darkreader-inline-stopcolor="" style="--darkreader-inline-stopcolor: #338a92;"/><stop offset="0.95" stop-color="#1496b0" data-darkreader-inline-stopcolor="" style="--darkreader-inline-stopcolor: #10788d;"/><stop offset="1" stop-color="#008cad" data-darkreader-inline-stopcolor="" style="--darkreader-inline-stopcolor: #00708a;"/></linearGradient><linearGradient id="linear-gradient-2" x1="-377.42" y1="746.38" x2="-376.42" y2="746.38" gradientTransform="matrix(540.32, 0, 0, -540.32, 204092.68, 403363.21)" xlink:href="#linear-gradient"/></defs><title>panoramicams_logo_svg </title><g id="Layer_2" data-name="Layer 2"><g id="Layer_1-2" data-name="Layer 1"><g class="cls-2"><rect class="cls-3" x="341.49" y="265.35" width="179.67" height="207.52"/></g><path class="cls-4" d="M417.47,421.45a78.43,78.43,0,1,1,25.7.35l-13.08,51.07-12.62-51.43Z"/><path class="cls-5" d="M435.47,340a4.14,4.14,0,1,1-4.14-4.14,4.14,4.14,0,0,1,4.14,4.14"/><path class="cls-6" d="M476.12,344.05a44.79,44.79,0,1,1-44.79-44.79,44.79,44.79,0,0,1,44.79,44.79"/><path class="cls-5" d="M435.35,344.05a4,4,0,1,1-4-4,4,4,0,0,1,4,4"/><path class="cls-5" d="M431.33,318.49a19.24,19.24,0,1,1-19.24-19.23,19.23,19.23,0,0,1,19.24,19.23"/><path class="cls-7" d="M246.34,199.15A271.63,271.63,0,0,1,429.23,129H431a277.92,277.92,0,0,1,185.32,72.37l-23.5,25.93a242.93,242.93,0,0,0-162-63.3h-1.56a236.55,236.55,0,0,0-159.41,61.12l-23.48-26Z"/><path class="cls-8" d="M161.51,109.67A396.21,396.21,0,0,1,428.26,7.34h2.6A405.42,405.42,0,0,1,701.17,112.91l-32.91,36.3C605.11,92,521.83,56.94,430.55,56.35h-2.29c-90.37,0-172.15,33.88-233.88,89.67l-32.87-36.34Z"/><path class="cls-9" d="M644.28,167.51l3.79-4.65,3.85-4.59,7.7-9.18L675.31,131c5.2-6,10.56-11.93,15.85-17.88l1-1.12.25-.28c.08-.08.21-.21.14-.18a.18.18,0,0,0-.11,0,1.08,1.08,0,0,0-.47.3,1.51,1.51,0,0,0-.42,1.25,2.21,2.21,0,0,0,.26.85c.29.31-.36-.22-.7-.45l-1.17-.86-4.68-3.45A443.65,443.65,0,0,0,647,83.54c-6.7-3.73-13.17-7.78-20-11.18l-5.06-2.65c-1.7-.87-3.35-1.81-5.09-2.58-3.47-1.59-6.88-3.26-10.31-4.89a425.65,425.65,0,0,0-85.71-29L509.7,31.1,504.18,30l-1.38-.28-1.4-.21-2.78-.42-11.14-1.7c-1.85-.32-3.72-.49-5.59-.68l-5.61-.58c-1.86-.19-3.73-.42-5.59-.63l-2.8-.32c-.93-.1-1.87-.13-2.81-.2l-11.23-.75L451,24c-.94-.07-1.88-.12-2.82-.12l-5.63-.1-11.26-.23-11.26.22-5.64.1c-.94,0-1.87,0-2.81.12l-2.81.19L397.57,25c-.93.07-1.87.11-2.81.21l-2.79.32c-1.87.22-3.73.41-5.6.61l-5.6.58c-1.87.19-3.74.36-5.59.68L364,29.05l-2.79.42-1.4.21-1.38.28L353,31.07c-3.68.78-7.39,1.4-11.07,2.17a425.18,425.18,0,0,0-85.73,28.95c-3.42,1.64-6.85,3.29-10.31,4.89-1.75.76-3.4,1.71-5.09,2.58l-5.06,2.65c-6.84,3.41-13.31,7.44-20,11.18a447.8,447.8,0,0,0-38.31,25.72l-4.67,3.45-1.17.86c-.34.24-1,.77-.7.46a2.32,2.32,0,0,0,.25-.84,1.48,1.48,0,0,0-.42-1.22,1,1,0,0,0-.46-.28.14.14,0,0,0-.11,0c-.07,0,.06.09.14.18l.24.28,1,1.11c5.3,5.94,10.65,11.83,15.85,17.87l15.7,18,7.71,9.17,3.86,4.59,3.79,4.65.1.13a1.17,1.17,0,0,1-1.71,1.6l-35-32.2L164.25,121l-1.1-1c-.18-.18-.35-.31-.56-.53l-.62-.64a9.82,9.82,0,0,1-1.7-10.06,9.51,9.51,0,0,1,1.95-3,13.81,13.81,0,0,1,1.16-1.09l1.12-1,4.46-4a394.5,394.5,0,0,1,37.57-29.48c6.65-4.38,13.18-9,20.09-12.92l5.12-3.08c1.72-1,3.39-2.1,5.16-3l10.51-5.68c3.47-2,7.09-3.64,10.68-5.38s7.15-3.51,10.78-5.14l11-4.69c1.84-.76,3.65-1.6,5.51-2.31l5.6-2.09c3.74-1.38,7.46-2.8,11.21-4.15l11.38-3.65,5.69-1.83L325,14.68l11.54-3.11A413.19,413.19,0,0,1,431.33,0a413.18,413.18,0,0,1,94.75,11.56l11.54,3.12,5.77,1.56,5.7,1.82,11.38,3.65c3.75,1.36,7.47,2.78,11.21,4.16l5.6,2.09c1.86.7,3.67,1.54,5.51,2.31l11,4.69c3.64,1.63,7.19,3.43,10.79,5.14s7.2,3.41,10.67,5.38l10.52,5.68c1.77.91,3.44,2,5.16,3L636,57.24c6.91,4,13.44,8.55,20.09,12.93A394.5,394.5,0,0,1,693.7,99.65l4.46,4,1.12,1c.38.35.72.62,1.16,1.1a9.4,9.4,0,0,1,1.95,3,9.72,9.72,0,0,1,.1,7,9.89,9.89,0,0,1-1.8,3.07l-.62.63c-.21.22-.38.35-.57.53l-1.09,1L680.9,137l-35,32.2a1.17,1.17,0,0,1-1.71-1.6Z"/><path class="cls-9" d="M317.78,262.77c-3-2.1-5.9-4.23-8.78-6.34s-5.73-4.17-8.49-6.31c-5.54-4.26-11-8.37-16.18-12.62S274,229,269.07,224.65s-9.82-8.76-14.64-13.21l-5.9-5.45a7.06,7.06,0,0,1-.39-10l.12-.12a250.84,250.84,0,0,1,83.31-56.61,259.65,259.65,0,0,1,199.5,0,250.84,250.84,0,0,1,83.31,56.61l.83.86a8.29,8.29,0,0,1-.18,11.73c-.18.17-.38.35-.57.5-5.69,4.59-11.33,9.24-17.11,13.74l-17.25,13.6c-5.77,4.52-11.65,8.91-17.47,13.36-2.9,2.24-5.88,4.39-8.83,6.57s-5.92,4.36-8.93,6.48l-.09.07a.82.82,0,0,1-1-1.28l31.88-30,15.93-15,16-15v1.86a263.13,263.13,0,0,0-352.45,0l-.87-2.2,16.24,15,16.21,15.1,32.23,30.22a.82.82,0,0,1-1,1.28Z"/><path class="cls-10" d="M50.1,359.53c31.48,0,46.76-17.68,46.76-39,0-20.8-15.83-41.79-46.94-41.79H8.13A3.1,3.1,0,0,0,5,281.84V393.58c0,3.87,6.08,3.87,6.08-.18V359.53Zm-39-75.11h39c25.23,0,40.32,18,40.5,36.08.37,16.57-11.78,33.32-40.5,33.32h-39Z"/><path class="cls-10" d="M197.93,363l16.39,32.59c1.84,3.5,7.18.74,5.34-2.95L160.93,277.24a2.77,2.77,0,0,0-2.58-1.66,3,3,0,0,0-2.76,1.66L97.05,392.66c-1.84,3.69,3.5,6.45,5.34,2.95L118.77,363ZM195,357.5H121.53l36.82-72.9Z"/><path class="cls-10" d="M325.88,384.56,246,280.18c-2.58-3.31-6.44-2.76-6.44,1.84V392.66a3,3,0,1,0,6.07,0V289.39l80.08,104.38c2.4,2.94,6.45,2.94,6.45-1.47V281.47a3.14,3.14,0,1,0-6.26,0Z"/><path class="cls-10" d="M580.91,352.72l41.42,43.63c2.95,2.94,6.81-1.11,3.87-4.24L588.09,352.9c26.88-2,40.13-16,40.13-35.9,0-20.8-15.83-38.29-46.94-38.29h-46.4a3,3,0,0,0-3.13,3.13V393.58c0,3.87,6.08,3.87,6.08-.18V352.72Zm-43.08-68.3h43.63c25.22,0,40.32,14.54,40.5,32.58.37,16.75-12,30.38-40.5,30.38H537.83Z"/><path class="cls-10" d="M739.23,363l16.38,32.59c1.85,3.5,7.18.74,5.34-2.95L702.23,277.24a2.79,2.79,0,0,0-2.58-1.66,3,3,0,0,0-2.76,1.66L638.35,392.66c-1.85,3.69,3.49,6.45,5.33,2.95L660.07,363Zm-3-5.52H662.83l36.82-72.9Z"/><path class="cls-10" d="M838.09,359.89l-51.18-79.71c-1.84-3.13-5.89-2.21-5.89,1.47V393a3.13,3.13,0,1,0,6.26,0V292l47.5,74.19a3.53,3.53,0,0,0,6.44,0l47.49-74.56V393a3.13,3.13,0,1,0,6.26,0V281.65c0-3.68-4.05-4.6-6.07-1.47Z"/><path class="cls-10" d="M928.66,392.85c0,4.23,6.63,4.23,6.63,0V281.1a3.32,3.32,0,1,0-6.63,0Z"/><path class="cls-10" d="M1068.57,375.18c2.58-3.5-2.21-7.18-4.78-3.5a51.53,51.53,0,0,1-17.31,14.17c-37.55,19-79.71-9.39-78.61-50.07.74-29.83,18.6-48.6,44.55-52.65,20.07-2.4,34.61-.92,49.53,15.28,2.76,2.94,7.18-.37,4.41-3.68-15.83-16.94-33.13-20.44-54.86-17.68-28.9,4.6-48.78,27.43-49.52,58.54-1.47,46,45.47,76.77,87.08,55.79A50.9,50.9,0,0,0,1068.57,375.18Z"/><path class="cls-10" d="M1178.48,363l16.38,32.59c1.84,3.5,7.18.74,5.34-2.95l-58.73-115.42a2.76,2.76,0,0,0-2.57-1.66,3,3,0,0,0-2.77,1.66l-58.54,115.42c-1.84,3.69,3.5,6.45,5.34,2.95L1099.32,363Zm-3-5.52h-73.45l36.82-72.9Z"/><path class="cls-10" d="M1277.33,359.89l-51.17-79.71c-1.85-3.13-5.9-2.21-5.9,1.47V393a3.13,3.13,0,1,0,6.26,0V292l47.5,74.19a3.53,3.53,0,0,0,6.44,0l47.5-74.56V393a3.13,3.13,0,1,0,6.26,0V281.65c0-3.68-4-4.6-6.07-1.47Z"/><path class="cls-10" d="M1357.23,371.31c5.89,21.35,34.43,26.51,53.2,26.51,22.28,0,52.47-7.37,52.47-34.43,0-48.23-97.2-11.41-97.2-53.57a14.67,14.67,0,0,1,1.29-6.26c4.78-14,23.93-19.33,37.18-20.25,1.48,0,2.95-.18,4.42-.18,15.65,0,38.48,2.39,44.74,19.7,1.29,3.68,7,2.39,5.15-2-7-19.15-32.4-23.2-50.07-23.2a86.46,86.46,0,0,0-15.47,1.48c-15.46,3.31-33.32,12.33-33.32,30.56,0,49.7,97.21,11.59,97.21,53.94,0,22.82-28.17,29.08-46.4,29.08a67.89,67.89,0,0,1-8.65-.55c-13.81-1.29-34.61-7-39-22.27C1361.65,366,1356.13,367.63,1357.23,371.31Z"/></g></g><style xmlns="" class="darkreader darkreader--fallback">html, body, body :not(iframe) {
    background-color: #181a1b !important;
    border-color: #776e62 !important;
    color: #e8e6e3 !important;
}
div[style*="background-color: rgb(135, 135, 135)"] {
    background-color: #878787 !important;
}</style></svg>