<?xml version="1.0" encoding="UTF-8"?>
<svg id="Livello_2" data-name="Livello 2" xmlns="http://www.w3.org/2000/svg" viewBox="0 0 142 142">
  <defs>
    <style>
      .cls-1 {
        fill: #232121;
      }

      .cls-1, .cls-2 {
        stroke-width: 0px;
      }

      .cls-2 {
        fill: #0bfce1;
      }
    </style>
  </defs>
  <g id="svg2">
    <rect class="cls-1" width="142" height="142"/>
    <g id="g10">
      <g id="g14">
        <g id="g16">
          <g id="g124">
            <path id="path126" class="cls-2" d="m30.59,111.42c-.17,0-.27-.07-.33-.22l-1.81-4.31-.53,1.03v3.21c0,.19-.1.29-.29.29h-1.38c-.19,0-.29-.1-.29-.29v-11.02c0-.19.1-.29.29-.29h1.38c.19,0,.29.1.29.29v4.5l2.22-4.57c.07-.15.17-.22.33-.22h1.51c.22,0,.3.15.2.35l-2.45,5.06,2.61,5.86c.1.19.01.33-.22.33h-1.53Z"/>
          </g>
          <g id="g128">
            <path id="path130" class="cls-2" d="m35.69,99.82c.14,0,.23.09.23.23v11.14c0,.15-.09.23-.23.23h-1.5c-.16,0-.23-.09-.23-.23v-11.14c0-.15.07-.23.23-.23h1.5Z"/>
          </g>
          <g id="g132">
            <path id="path134" class="cls-2" d="m42.89,99.82c.16,0,.23.09.23.23v1.45c0,.14-.07.23-.23.23h-1.67v9.46c0,.16-.07.23-.23.23h-1.5c-.14,0-.23-.07-.23-.23v-9.46h-1.67c-.14,0-.23-.09-.23-.23v-1.45c0-.15.09-.23.23-.23h5.3Z"/>
          </g>
          <g id="g136">
            <path id="path138" class="cls-2" d="m50.16,101.5c0,.15-.06.25-.23.25h-3.6v2.9h2.75c.14,0,.23.09.23.25v1.44c0,.16-.09.25-.23.25h-2.75v2.93h3.6c.17,0,.23.07.23.23v1.45c0,.15-.06.23-.23.23h-5.3c-.13,0-.22-.09-.22-.23v-11.14c0-.15.09-.23.22-.23h5.3c.17,0,.23.09.23.23v1.45Z"/>
          </g>
          <g id="g140">
            <path id="path142" class="cls-2" d="m55.75,107.16c0-.38-.19-.58-.58-.58h-1.31v2.93h1.31c.37,0,.58-.19.58-.58v-1.77Zm0-4.84c0-.38-.19-.58-.58-.58h-1.31v2.93h1.31c.37,0,.58-.2.58-.57v-1.78Zm1.92,2.26c0,.54-.39.94-.91,1.03v.03c.52.09.91.49.91,1.03v2.67c0,1.36-.73,2.09-2.09,2.09h-3.46c-.14,0-.23-.09-.23-.23v-11.14c0-.16.09-.23.23-.23h3.46c1.35,0,2.09.73,2.09,2.09v2.67Z"/>
          </g>
          <g id="g144">
            <path id="path146" class="cls-2" d="m62.72,109.55c.37,0,.58-.19.58-.58v-6.7c0-.38-.2-.58-.58-.58h-.84c-.37,0-.58.2-.58.58v6.7c0,.39.2.58.58.58h.84Zm-3.33-7.64c0-1.36.72-2.09,2.07-2.09h1.61c1.35,0,2.07.73,2.07,2.09v7.43c0,1.36-.72,2.09-2.07,2.09h-1.61c-1.35,0-2.07-.73-2.07-2.09v-7.43Z"/>
          </g>
          <g id="g148">
            <path id="path150" class="cls-2" d="m69.95,102.36l-.92,5.06h1.84l-.92-5.06Zm1.92,9.07c-.13,0-.2-.07-.23-.2l-.4-2.12h-2.56l-.39,2.12c-.03.13-.1.2-.23.2h-1.54c-.16,0-.23-.09-.19-.25l2.39-11.15c.03-.15.12-.2.25-.2h2c.13,0,.22.06.25.2l2.39,11.15c.03.16-.03.25-.2.25h-1.53Z"/>
          </g>
          <g id="g152">
            <path id="path154" class="cls-2" d="m78.56,105.62c.37,0,.58-.2.58-.58v-2.73c0-.38-.2-.58-.58-.58h-1.43v3.89h1.43Zm2.53-.17c0,.97-.36,1.61-1.05,1.91l.99,3.8c.04.17-.04.26-.2.26h-1.5c-.14,0-.22-.07-.24-.2l-.97-3.68h-.99v3.65c0,.15-.09.23-.23.23h-1.5c-.14,0-.23-.09-.23-.23v-11.14c0-.15.09-.23.23-.23h3.61c1.35,0,2.07.73,2.07,2.09v3.54Z"/>
          </g>
          <g id="g156">
            <path id="path158" class="cls-2" d="m86.11,109.51c.37,0,.58-.19.58-.58v-6.6c0-.39-.2-.59-.58-.59h-1.33v7.77h1.33Zm-3.28-9.46c0-.15.07-.23.23-.23h3.46c1.35,0,2.07.74,2.07,2.1v7.41c0,1.36-.72,2.09-2.07,2.09h-3.46c-.16,0-.23-.07-.23-.23v-11.14Z"/>
          </g>
          <g id="g160">
            <path id="path162" class="cls-2" d="m92.04,99.82c.14,0,.23.09.23.23v11.14c0,.15-.09.23-.23.23h-1.5c-.16,0-.23-.09-.23-.23v-11.14c0-.15.07-.23.23-.23h1.5Z"/>
          </g>
          <g id="g164">
            <path id="path166" class="cls-2" d="m99.92,99.82c.14,0,.23.09.23.23v11.14c0,.15-.09.23-.23.23h-1.43c-.13,0-.22-.06-.26-.19l-2.2-6.19h-.07v6.15c0,.15-.07.23-.23.23h-1.5c-.14,0-.23-.09-.23-.23v-11.14c0-.15.09-.23.23-.23h1.43c.13,0,.22.06.26.19l2.19,6.16h.09v-6.12c0-.15.07-.23.23-.23h1.5Z"/>
          </g>
          <g id="g168">
            <path id="path170" class="cls-2" d="m101.88,101.91c0-1.36.72-2.09,2.07-2.09h1.9c1.34,0,2.07.72,2.07,2.09v1.51c0,.15-.09.23-.23.23h-1.44c-.16,0-.23-.09-.23-.23v-1.1c0-.38-.2-.58-.58-.58h-1.04c-.39,0-.58.2-.58.58v6.61c0,.39.2.58.58.58h1.04c.37,0,.58-.19.58-.58v-1.94h-.75c-.16,0-.23-.09-.23-.23v-1.45c0-.16.07-.23.23-.23h2.42c.14,0,.23.07.23.23v4.03c0,1.36-.73,2.09-2.07,2.09h-1.9c-1.35,0-2.07-.73-2.07-2.09v-7.43Z"/>
          </g>
          <g id="g172">
            <path id="path174" class="cls-2" d="m39.22,119.99c0,.15-.09.23-.23.23h-1.44c-.16,0-.23-.09-.23-.23v-1.16c0-.38-.2-.58-.58-.58h-.75c-.39,0-.58.2-.58.58v6.61c0,.39.2.58.58.58h.75c.37,0,.58-.19.58-.58v-1.16c0-.15.07-.23.23-.23h1.44c.14,0,.23.09.23.23v1.57c0,1.36-.73,2.09-2.07,2.09h-1.61c-1.35,0-2.09-.73-2.09-2.09v-7.43c0-1.36.73-2.09,2.09-2.09h1.61c1.34,0,2.07.73,2.07,2.09v1.57Z"/>
          </g>
          <g id="g176">
            <path id="path178" class="cls-2" d="m44.75,116.57c0-.15.09-.23.23-.23h1.48c.17,0,.25.09.25.23v11.14c0,.15-.07.23-.25.23h-1.48c-.14,0-.23-.09-.23-.23v-4.61h-1.84v4.61c0,.15-.09.23-.23.23h-1.48c-.17,0-.24-.09-.24-.23v-11.14c0-.15.07-.23.24-.23h1.48c.14,0,.23.09.23.23v4.61h1.84v-4.61Z"/>
          </g>
          <g id="g180">
            <path id="path182" class="cls-2" d="m51.76,126.07c.37,0,.58-.19.58-.58v-6.7c0-.38-.2-.58-.58-.58h-.84c-.37,0-.58.2-.58.58v6.7c0,.39.2.58.58.58h.84Zm-3.33-7.64c0-1.36.72-2.09,2.07-2.09h1.61c1.35,0,2.07.73,2.07,2.09v7.43c0,1.36-.72,2.09-2.07,2.09h-1.61c-1.35,0-2.07-.73-2.07-2.09v-7.43Z"/>
          </g>
          <g id="g184">
            <path id="path186" class="cls-2" d="m59.25,126.07c.37,0,.58-.19.58-.58v-6.7c0-.38-.2-.58-.58-.58h-.84c-.37,0-.58.2-.58.58v6.7c0,.39.2.58.58.58h.84Zm-3.33-7.64c0-1.36.72-2.09,2.07-2.09h1.61c1.35,0,2.07.73,2.07,2.09v7.43c0,1.36-.72,2.09-2.07,2.09h-1.61c-1.35,0-2.07-.73-2.07-2.09v-7.43Z"/>
          </g>
          <g id="g188">
            <path id="path190" class="cls-2" d="m65.37,126.03h3.43c.16,0,.23.09.23.23v1.45c0,.16-.07.23-.23.23h-5.16c-.14,0-.23-.07-.23-.23v-11.14c0-.15.09-.23.23-.23h1.5c.16,0,.23.09.23.23v9.46Z"/>
          </g>
          <g id="g192">
            <path id="path194" class="cls-2" d="m31.34,121.97l-3.43-1.12v-1.99c0-.37.22-.58.58-.58h.69c.39,0,.58.2.58.58v1.32c0,.1.06.18.15.21l1.51.5c.14.05.29-.06.29-.21v-2.22c0-1.15-.93-2.07-2.07-2.07h-1.61c-1.34,0-2.07.72-2.07,2.07v3.4c0,.27.13.45.39.53l3.41,1.12v1.91c0,.39-.2.58-.58.58h-.69c-.36,0-.58-.19-.58-.58v-1.25c0-.1-.06-.18-.15-.21l-1.51-.5c-.14-.05-.29.06-.29.21v2.15c0,1.35.73,2.07,2.07,2.07h1.61c1.15,0,2.08-.93,2.08-2.08v-3.32c0-.27-.13-.43-.37-.53"/>
          </g>
          <g id="g196">
            <path id="path198" class="cls-2" d="m42.88,81.57c0-.44.24-.67.67-.67h5.32c.44,0,.67.24.67.67v3.1c0,.44-.23.67-.67.67h-5.32c-.44,0-.67-.24-.67-.67v-3.1Z"/>
          </g>
          <g id="g200">
            <path id="path202" class="cls-2" d="m57.56,90.8h8.01c.37,0,.54.2.54.54v3.37c0,.37-.17.54-.54.54h-12.05c-.34,0-.54-.17-.54-.54v-25.86c0-.34.2-.54.54-.54h3.5c.37,0,.54.2.54.54v21.95Z"/>
          </g>
          <g id="g204">
            <path id="path206" class="cls-2" d="m77.32,90.9c.87,0,1.35-.44,1.35-1.35v-15.55c0-.88-.47-1.35-1.35-1.35h-1.95c-.88,0-1.35.47-1.35,1.35v15.55c0,.91.47,1.35,1.35,1.35h1.95Zm-7.78-17.74c0-3.16,1.68-4.85,4.85-4.85h3.77c3.17,0,4.85,1.68,4.85,4.85v17.24c0,3.17-1.68,4.85-4.85,4.85h-3.77c-3.16,0-4.85-1.68-4.85-4.85v-17.24Z"/>
          </g>
          <g id="g208">
            <path id="path210" class="cls-2" d="m94.22,90.9c.87,0,1.35-.44,1.35-1.35v-15.55c0-.88-.47-1.35-1.35-1.35h-1.95c-.88,0-1.35.47-1.35,1.35v15.55c0,.91.47,1.35,1.35,1.35h1.95Zm-7.78-17.74c0-3.16,1.68-4.85,4.85-4.85h3.77c3.17,0,4.85,1.68,4.85,4.85v17.24c0,3.17-1.68,4.85-4.85,4.85h-3.77c-3.16,0-4.85-1.68-4.85-4.85v-17.24Z"/>
          </g>
          <g id="g212">
            <path id="path214" class="cls-2" d="m110.89,81.78c.91,0,1.35-.51,1.35-1.35v-6.33c0-.87-.44-1.35-1.35-1.35h-2.96v9.02h2.96Zm-7.54-12.93c0-.34.2-.54.54-.54h8.08c3.16,0,4.85,1.68,4.85,4.85v8.21c0,3.13-1.68,4.85-4.85,4.85h-4.04v8.48c0,.34-.17.54-.54.54h-3.5c-.34,0-.54-.2-.54-.54v-25.86Z"/>
          </g>
          <g id="g216">
            <path id="path218" class="cls-2" d="m38.55,81.37l-8.01-2.63v-4.65c0-.88.51-1.35,1.35-1.35h1.62c.91,0,1.35.47,1.35,1.35v3.09c0,.22.15.42.36.49l3.54,1.16c.34.11.68-.14.68-.49v-5.2c0-2.68-2.17-4.85-4.85-4.85h-3.77c-3.13,0-4.85,1.68-4.85,4.85v7.95c0,.64.3,1.04.91,1.25l7.98,2.63v4.48c0,.91-.47,1.35-1.35,1.35h-1.62c-.84,0-1.35-.44-1.35-1.35v-2.93c0-.23-.14-.42-.36-.49l-3.54-1.16c-.34-.11-.68.14-.68.49v5.03c0,3.16,1.72,4.85,4.85,4.85h3.77c2.68,0,4.85-2.17,4.85-4.85v-7.77c0-.64-.3-1.01-.87-1.25"/>
          </g>
          <g id="g220">
            <path id="path222" class="cls-2" d="m72.75,56.54l8.86-27.03h15.67c2.95,0,4.54,1.7,4.54,4.54v5.45c0,3.07-1.59,4.54-4.54,4.54h-10.43c-.76,0-1.43.49-1.67,1.21l-3.93,11.94c-.37,1.13.47,2.3,1.67,2.3h17.53c9.03,0,16.35-7.32,16.35-16.35v-12.72c0-10.56-5.68-16.35-16.35-16.35h-26.8c-2.16,0-3.52,1.02-4.2,3.07l-8.86,26.92h-15.11c-3.07,0-4.54-1.59-4.54-4.54v-5.45c0-2.84,1.48-4.54,4.54-4.54h9.87c.76,0,1.43-.49,1.67-1.21l3.91-11.94c.37-1.13-.47-2.3-1.67-2.3h-16.96c-10.68,0-16.35,5.79-16.35,16.35v12.7c0,9.04,7.33,16.37,16.37,16.37h26.22c2.16,0,3.41-1.02,4.2-2.95"/>
          </g>
        </g>
      </g>
    </g>
  </g>
</svg>