<?xml version="1.0" standalone="no"?>
<!DOCTYPE svg PUBLIC "-//W3C//DTD SVG 20010904//EN"
 "http://www.w3.org/TR/2001/REC-SVG-20010904/DTD/svg10.dtd">
<svg version="1.0" xmlns="http://www.w3.org/2000/svg"
 width="700.000000pt" height="700.000000pt" viewBox="0 0 700.000000 700.000000"
 preserveAspectRatio="xMidYMid meet">
<metadata>
Created by potrace 1.14, written by Peter Selinger 2001-2017
</metadata>
<g transform="translate(0.000000,700.000000) scale(0.100000,-0.100000)"
fill="#000000" stroke="none">
<path d="M0 3500 l0 -3500 3500 0 3500 0 0 3500 0 3500 -3500 0 -3500 0 0
-3500z m2954 2796 c20 -8 37 -25 46 -45 12 -29 6 -51 -90 -344 -73 -225 -108
-319 -126 -337 l-24 -25 -308 -5 c-298 -5 -308 -6 -344 -28 -23 -14 -46 -42
-62 -74 -25 -51 -26 -57 -26 -253 0 -196 1 -202 26 -252 20 -42 35 -57 77 -77
l51 -26 407 0 408 0 31 98 c150 470 408 1236 428 1275 18 33 40 57 71 75 l46
27 695 3 c848 4 932 -3 1105 -83 140 -64 237 -160 305 -300 81 -168 93 -271
87 -785 -4 -436 -6 -452 -73 -598 -85 -186 -246 -341 -431 -417 -128 -51 -174
-55 -706 -55 -482 0 -494 0 -515 20 -12 11 -24 31 -28 44 -7 29 188 635 216
668 18 23 20 23 342 28 344 5 344 5 401 58 45 43 57 104 57 297 0 238 -17 287
-120 341 -32 18 -68 19 -452 22 -395 3 -417 3 -426 -15 -5 -10 -105 -310 -222
-668 -117 -357 -221 -666 -231 -686 -23 -46 -69 -85 -117 -99 -26 -8 -266 -10
-777 -8 -833 4 -781 -1 -950 83 -195 97 -335 260 -408 475 l-32 95 0 475 c0
456 1 478 22 561 58 227 171 372 359 460 164 78 241 86 812 88 356 1 449 -2
476 -13z m-1149 -2685 c22 -10 54 -34 72 -52 56 -59 63 -90 63 -273 0 -91 -4
-167 -9 -170 -4 -3 -53 9 -107 28 l-99 33 -5 100 c-3 63 -10 106 -19 117 -18
21 -162 23 -180 2 -8 -9 -11 -57 -9 -147 l3 -132 196 -66 c108 -36 204 -72
213 -80 14 -12 16 -44 16 -250 0 -268 -5 -287 -78 -353 -59 -53 -93 -60 -277
-56 -190 4 -221 14 -270 93 -30 48 -30 49 -33 225 -3 152 -1 178 12 183 18 7
198 -51 208 -67 4 -6 8 -52 8 -102 0 -110 5 -116 95 -122 58 -4 66 -2 90 22
25 25 26 28 23 148 l-3 122 -204 66 c-135 44 -208 72 -218 85 -12 17 -14 64
-11 270 l3 250 27 47 c21 34 41 53 80 72 49 25 59 26 212 26 135 0 167 -3 201
-19z m1033 -538 l2 -553 208 -2 207 -3 3 -94 c2 -60 -1 -98 -9 -107 -16 -19
-608 -21 -627 -2 -9 9 -12 169 -12 658 0 356 3 650 7 654 4 3 54 5 112 4 l106
-3 3 -552z m1143 530 c45 -23 59 -37 82 -82 l27 -55 0 -491 c0 -341 -3 -502
-11 -526 -19 -54 -58 -100 -108 -123 -69 -31 -353 -31 -422 0 -50 23 -89 69
-108 123 -8 24 -11 185 -11 526 l0 491 28 55 c22 45 36 59 81 82 53 26 59 27
221 27 162 0 168 -1 221 -27z m802 16 c52 -14 102 -61 124 -117 16 -43 18 -87
18 -532 0 -542 -1 -548 -70 -608 -55 -49 -93 -57 -270 -57 -147 0 -164 2 -207
23 -55 27 -85 64 -104 129 -21 70 -20 958 1 1029 17 58 65 109 121 129 48 17
330 20 387 4z m830 0 c21 -6 56 -26 78 -46 65 -58 71 -97 67 -406 -3 -249 -4
-264 -25 -304 -27 -50 -73 -87 -128 -102 -22 -6 -95 -11 -162 -11 l-123 0 0
-220 0 -220 -109 0 c-90 0 -110 3 -115 16 -8 20 -8 1268 0 1288 5 14 36 16
243 16 135 0 252 -5 274 -11z m-3175 -713 c2 -73 -1 -102 -10 -108 -7 -4 -77
-8 -155 -8 -167 0 -163 -3 -163 114 0 114 -12 107 169 104 l156 -3 3 -99z
m-1058 -941 l5 -110 52 113 52 112 52 0 c28 0 49 -4 47 -9 -1 -4 -30 -65 -62
-134 l-59 -126 41 -93 c22 -51 52 -119 66 -150 l26 -58 -53 0 -53 0 -43 105
c-24 58 -47 105 -52 105 -13 0 -19 -35 -21 -125 l-3 -80 -47 -3 -48 -3 0 286
0 286 48 -3 47 -3 5 -110z m390 -170 l0 -285 -50 0 -50 0 0 278 c0 153 3 282
7 285 3 4 26 7 50 7 l43 0 0 -285z m358 238 l3 -42 -48 -3 -48 -3 -3 -237 -2
-238 -45 0 -45 0 -2 238 -3 237 -47 3 -48 3 0 45 0 45 143 -3 142 -3 3 -42z
m342 -3 l0 -50 -95 0 -95 0 0 -70 0 -70 75 0 75 0 0 -45 0 -44 -72 -3 -73 -3
-3 -72 -3 -73 96 0 95 0 0 -45 0 -45 -140 0 -140 0 0 285 0 285 140 0 140 0 0
-50z m346 17 c22 -26 24 -37 24 -124 0 -72 -4 -101 -15 -113 -14 -15 -14 -18
0 -30 12 -10 15 -35 15 -117 0 -97 -2 -106 -25 -128 -23 -24 -30 -25 -140 -25
l-115 0 0 286 0 286 116 -4 c113 -3 116 -4 140 -31z m370 0 c24 -28 24 -30 24
-248 0 -287 -1 -288 -143 -289 -80 0 -90 2 -112 25 l-25 24 0 231 0 232 30 30
c30 29 32 30 116 27 79 -4 87 -6 110 -32z m324 29 c0 -5 109 -513 117 -543 5
-22 2 -23 -45 -23 -50 0 -50 0 -56 38 -14 74 -12 72 -81 72 l-63 0 -7 -55 -6
-55 -50 0 c-27 0 -49 2 -49 5 0 5 104 496 115 543 5 20 11 22 65 22 33 0 60
-2 60 -4z m440 -11 c41 -21 53 -69 48 -202 -3 -102 -5 -114 -27 -137 l-24 -26
21 -79 c31 -110 31 -111 -23 -111 -44 0 -44 0 -55 43 -36 139 -39 147 -65 147
-25 0 -25 -1 -25 -95 l0 -95 -45 0 -45 0 0 285 0 285 105 0 c75 0 115 -4 135
-15z m370 0 c46 -24 52 -63 48 -298 l-3 -209 -28 -24 c-26 -22 -36 -24 -143
-24 l-114 0 0 278 c0 153 3 282 7 285 14 14 203 7 233 -8z m230 -270 l0 -285
-50 0 -50 0 0 285 0 285 50 0 50 0 0 -285z m197 220 c13 -33 38 -103 57 -155
l35 -95 0 158 1 158 48 -3 47 -3 3 -282 2 -283 -47 0 -48 0 -57 158 -57 157 0
-157 -1 -158 -50 0 -50 0 0 278 c0 153 3 282 7 286 4 4 25 6 47 4 39 -3 41 -5
63 -63z m545 38 c18 -18 23 -37 26 -93 l4 -70 -46 0 c-44 0 -46 1 -46 29 0 53
-8 61 -61 61 l-49 0 2 -187 3 -188 41 -3 c53 -4 66 12 62 75 -3 41 -6 48 -25
51 -20 3 -23 9 -23 48 l0 44 70 0 70 0 0 -126 c0 -125 0 -126 -29 -155 -28
-28 -33 -29 -120 -29 -81 0 -93 2 -118 24 l-28 24 -3 221 c-4 297 -1 303 160
298 76 -2 91 -5 110 -24z m-3430 -793 c53 -15 68 -42 68 -123 l0 -68 -42 3
c-43 3 -43 3 -48 48 l-5 45 -40 0 -40 0 -3 -188 -2 -188 42 3 c43 3 43 3 46
46 l3 42 45 0 44 0 0 -64 c0 -88 -22 -115 -102 -123 -74 -7 -125 3 -154 32
-24 24 -24 25 -24 247 0 159 4 230 13 248 22 43 117 62 199 40z m-331 -29 c27
-28 29 -34 29 -111 0 -80 0 -81 -22 -74 -66 20 -68 22 -68 63 0 45 -18 64 -57
59 -27 -3 -28 -5 -31 -65 l-3 -61 88 -29 88 -30 3 -112 3 -112 -30 -29 c-28
-28 -34 -30 -109 -30 -44 0 -88 3 -97 6 -28 11 -45 60 -45 134 0 78 4 81 65
56 30 -13 34 -19 37 -58 3 -42 4 -43 40 -46 32 -3 38 0 43 21 4 13 5 41 3 63
l-3 39 -80 25 c-44 14 -86 29 -93 33 -8 6 -12 42 -12 118 0 109 0 111 29 140
28 27 34 29 111 29 77 0 83 -2 111 -29z m587 -88 l3 -113 44 0 45 0 0 115 0
115 45 0 45 0 0 -285 0 -285 -45 0 -45 0 0 120 0 120 -45 0 -44 0 -3 -117 -3
-118 -47 -3 -48 -3 0 286 0 286 48 -3 47 -3 3 -112z m523 98 c24 -19 24 -21
27 -250 2 -152 -1 -237 -8 -251 -20 -37 -66 -52 -148 -48 -66 3 -77 6 -98 31
-24 28 -24 30 -24 258 l0 230 25 24 c22 23 32 25 113 25 73 0 94 -3 113 -19z
m354 13 c38 -15 45 -54 45 -273 0 -115 -4 -221 -10 -236 -15 -39 -70 -58 -153
-53 -61 3 -72 7 -93 31 -24 28 -24 30 -24 258 l0 230 25 24 c22 23 32 25 109
25 46 0 92 -3 101 -6z m225 -229 l0 -235 90 0 90 0 0 -50 0 -50 -135 0 -135 0
0 285 0 285 45 0 45 0 0 -235z"/>
<path d="M3670 3400 c-19 -19 -20 -33 -20 -433 0 -485 -10 -447 113 -447 126
0 117 -35 117 450 0 484 9 450 -115 450 -62 0 -79 -4 -95 -20z"/>
<path d="M4500 3400 c-19 -19 -20 -33 -20 -430 0 -485 -9 -450 118 -450 64 0
82 4 95 18 15 17 17 61 17 430 0 486 9 452 -115 452 -62 0 -79 -4 -95 -20z"/>
<path d="M5320 3190 l0 -220 88 0 c126 0 122 -8 122 223 0 155 -3 188 -16 201
-12 12 -37 16 -105 16 l-89 0 0 -220z"/>
<path d="M2660 1910 l0 -71 43 3 42 3 0 65 0 65 -42 3 -43 3 0 -71z"/>
<path d="M2660 1675 l0 -75 33 0 c45 0 57 15 57 75 0 60 -12 75 -57 75 l-33 0
0 -75z"/>
<path d="M3031 1976 c-8 -9 -11 -69 -9 -192 l3 -179 45 0 45 0 3 184 c2 141
-1 186 -10 193 -20 12 -64 9 -77 -6z"/>
<path d="M3424 1824 c-11 -63 -18 -117 -15 -119 2 -3 22 -5 43 -5 30 0 38 4
38 18 -1 24 -37 212 -42 217 -2 2 -13 -48 -24 -111z"/>
<path d="M3807 1983 c-4 -3 -7 -48 -7 -100 l0 -93 34 0 c64 0 66 3 66 100 0
82 -1 88 -22 94 -30 8 -63 8 -71 -1z"/>
<path d="M4180 1789 l0 -190 43 3 42 3 3 188 2 187 -45 0 -45 0 0 -191z"/>
<path d="M2485 1158 c-3 -8 -4 -92 -3 -188 l3 -175 45 0 45 0 0 185 0 185 -43
3 c-28 2 -44 -1 -47 -10z"/>
<path d="M2855 1158 c-3 -8 -4 -92 -3 -188 l3 -175 45 0 45 0 0 185 0 185 -43
3 c-28 2 -44 -1 -47 -10z"/>
</g>
</svg>
